<svg width="1229" height="1230" viewBox="0 0 1229 1230" fill="none" xmlns="http://www.w3.org/2000/svg">
<path d="M148.617 1229.38L148.617 0.375M303.696 1229.38L303.696 0.375M458.775 1229.38L458.775 0.375M613.854 1229.38L613.854 0.375M768.933 1229.38L768.933 0.375M924.012 1229.38L924.012 0.375M1079.09 1229.38L1079.09 0.375M4.0671e-05 148.992H1229M3.38925e-05 304.071H1229M2.7114e-05 459.15H1229M2.03355e-05 614.229H1229M1.3557e-05 769.308H1229M6.77851e-06 924.387H1229M0 1079.47H1229" stroke="url(#paint0_radial_10051_4256)" stroke-width="0.384063"/>
<defs>
<radialGradient id="paint0_radial_10051_4256" cx="0" cy="0" r="1" gradientUnits="userSpaceOnUse" gradientTransform="translate(614.5 614.875) rotate(90) scale(614.5)">
<stop stop-color="#FFF1CE" stop-opacity="0.8"/>
<stop offset="1" stop-color="#FFF1CE" stop-opacity="0"/>
</radialGradient>
</defs>
</svg>
