<svg width="30" height="37" viewBox="0 0 30 37" fill="none" xmlns="http://www.w3.org/2000/svg">
<path d="M6.66667 18.3333C6.66667 17.4129 7.41286 16.6667 8.33333 16.6667H21.6667C22.5871 16.6667 23.3333 17.4129 23.3333 18.3333C23.3333 19.2538 22.5871 20 21.6667 20H8.33333C7.41286 20 6.66667 19.2538 6.66667 18.3333Z" fill="#01203F"/>
<path d="M8.33333 25C7.41286 25 6.66667 25.7462 6.66667 26.6667C6.66667 27.5871 7.41286 28.3333 8.33333 28.3333H21.6667C22.5871 28.3333 23.3333 27.5871 23.3333 26.6667C23.3333 25.7462 22.5871 25 21.6667 25H8.33333Z" fill="#01203F"/>
<path fill-rule="evenodd" clip-rule="evenodd" d="M6.66667 0C2.98477 0 0 2.98477 0 6.66667V30C0 33.6819 2.98477 36.6667 6.66667 36.6667H23.3333C27.0152 36.6667 30 33.6819 30 30V13.4769C30 11.9173 29.4532 10.4071 28.4548 9.20902L22.7796 2.39877C21.513 0.87882 19.6367 0 17.6581 0H6.66667ZM3.33333 6.66667C3.33333 4.82572 4.82572 3.33333 6.66667 3.33333H16.6667V8.33333C16.6667 12.0152 19.6514 15 23.3333 15H26.6667V30C26.6667 31.8409 25.1743 33.3333 23.3333 33.3333H6.66667C4.82572 33.3333 3.33333 31.8409 3.33333 30V6.66667ZM26.1323 11.6667C26.0598 11.5546 25.9803 11.4464 25.8941 11.343L20.2189 4.53272C20.1495 4.44943 20.0764 4.37 20 4.29457V8.33333C20 10.1743 21.4924 11.6667 23.3333 11.6667H26.1323Z" fill="#01203F"/>
</svg>
