<svg width="16" height="17" viewBox="0 0 16 17" fill="none" xmlns="http://www.w3.org/2000/svg">
<path d="M5.33398 4.21826C5.06065 4.21826 4.83398 3.9916 4.83398 3.71826V1.71826C4.83398 1.44493 5.06065 1.21826 5.33398 1.21826C5.60732 1.21826 5.83398 1.44493 5.83398 1.71826V3.71826C5.83398 3.9916 5.60732 4.21826 5.33398 4.21826Z" fill="#01203F"/>
<path d="M10.666 4.21826C10.3927 4.21826 10.166 3.9916 10.166 3.71826V1.71826C10.166 1.44493 10.3927 1.21826 10.666 1.21826C10.9393 1.21826 11.166 1.44493 11.166 1.71826V3.71826C11.166 3.9916 10.9393 4.21826 10.666 4.21826Z" fill="#01203F"/>
<path d="M5.66667 10.0513C5.58 10.0513 5.49333 10.0313 5.41333 9.99799C5.32667 9.96466 5.26 9.91798 5.19333 9.85798C5.07333 9.73131 5 9.56465 5 9.38465C5 9.29798 5.02 9.21131 5.05333 9.13131C5.08667 9.05131 5.13333 8.97799 5.19333 8.91132C5.26 8.85132 5.32667 8.80464 5.41333 8.77131C5.65333 8.67131 5.95333 8.72465 6.14 8.91132C6.26 9.03799 6.33333 9.21131 6.33333 9.38465C6.33333 9.42465 6.32667 9.47132 6.32 9.51799C6.31333 9.55799 6.3 9.59798 6.28 9.63798C6.26667 9.67798 6.24667 9.71798 6.22 9.75798C6.2 9.79131 6.16667 9.82464 6.14 9.85798C6.01333 9.97798 5.84 10.0513 5.66667 10.0513Z" fill="#292D32"/>
<path d="M8.00065 10.0513C7.91398 10.0513 7.82732 10.0314 7.74732 9.99802C7.66065 9.96469 7.59399 9.91801 7.52732 9.85801C7.40732 9.73134 7.33398 9.56468 7.33398 9.38468C7.33398 9.29801 7.35399 9.21134 7.38732 9.13134C7.42065 9.05134 7.46732 8.97802 7.52732 8.91135C7.59399 8.85135 7.66065 8.80467 7.74732 8.77134C7.98732 8.66467 8.28732 8.72469 8.47398 8.91135C8.59398 9.03802 8.66732 9.21135 8.66732 9.38468C8.66732 9.42468 8.66065 9.47136 8.65398 9.51802C8.64732 9.55802 8.63398 9.59802 8.61398 9.63802C8.60065 9.67802 8.58065 9.71801 8.55399 9.75801C8.53399 9.79135 8.50065 9.82468 8.47398 9.85801C8.34732 9.97801 8.17398 10.0513 8.00065 10.0513Z" fill="#292D32"/>
<path d="M10.3327 10.0513C10.246 10.0513 10.1593 10.0314 10.0793 9.99802C9.99268 9.96469 9.92602 9.91801 9.85935 9.85801C9.83268 9.82468 9.80601 9.79135 9.77935 9.75801C9.75268 9.71801 9.73268 9.67802 9.71935 9.63802C9.69935 9.59802 9.68602 9.55802 9.67935 9.51802C9.67268 9.47136 9.66602 9.42468 9.66602 9.38468C9.66602 9.21135 9.73935 9.03802 9.85935 8.91135C9.92602 8.85135 9.99268 8.80467 10.0793 8.77134C10.326 8.66467 10.6193 8.72469 10.806 8.91135C10.926 9.03802 10.9993 9.21135 10.9993 9.38468C10.9993 9.42468 10.9927 9.47136 10.986 9.51802C10.9793 9.55802 10.966 9.59802 10.946 9.63802C10.9327 9.67802 10.9127 9.71801 10.886 9.75801C10.866 9.79135 10.8327 9.82468 10.806 9.85801C10.6793 9.97801 10.506 10.0513 10.3327 10.0513Z" fill="#292D32"/>
<path d="M5.66667 12.3846C5.58 12.3846 5.49333 12.3646 5.41333 12.3312C5.33333 12.2979 5.26 12.2512 5.19333 12.1912C5.07333 12.0646 5 11.8912 5 11.7179C5 11.6312 5.02 11.5446 5.05333 11.4646C5.08667 11.3779 5.13333 11.3046 5.19333 11.2446C5.44 10.9979 5.89333 10.9979 6.14 11.2446C6.26 11.3712 6.33333 11.5446 6.33333 11.7179C6.33333 11.8912 6.26 12.0646 6.14 12.1912C6.01333 12.3112 5.84 12.3846 5.66667 12.3846Z" fill="#292D32"/>
<path d="M8.00065 12.3846C7.82732 12.3846 7.65399 12.3112 7.52732 12.1912C7.40732 12.0646 7.33398 11.8912 7.33398 11.7179C7.33398 11.6312 7.35399 11.5446 7.38732 11.4646C7.42065 11.3779 7.46732 11.3046 7.52732 11.2446C7.77399 10.9979 8.22732 10.9979 8.47398 11.2446C8.53398 11.3046 8.58065 11.3779 8.61398 11.4646C8.64732 11.5446 8.66732 11.6312 8.66732 11.7179C8.66732 11.8912 8.59398 12.0646 8.47398 12.1912C8.34732 12.3112 8.17398 12.3846 8.00065 12.3846Z" fill="#292D32"/>
<path d="M10.3327 12.3847C10.1593 12.3847 9.98602 12.3114 9.85935 12.1914C9.79935 12.1314 9.75268 12.058 9.71935 11.9714C9.68602 11.8914 9.66602 11.8047 9.66602 11.718C9.66602 11.6314 9.68602 11.5447 9.71935 11.4647C9.75268 11.378 9.79935 11.3047 9.85935 11.2447C10.0127 11.0914 10.246 11.018 10.4593 11.0647C10.506 11.0714 10.546 11.0847 10.586 11.1047C10.626 11.118 10.666 11.138 10.706 11.1647C10.7393 11.1847 10.7727 11.218 10.806 11.2447C10.926 11.3714 10.9993 11.5447 10.9993 11.718C10.9993 11.8914 10.926 12.0647 10.806 12.1914C10.6793 12.3114 10.506 12.3847 10.3327 12.3847Z" fill="#292D32"/>
<path d="M13.6673 6.94482H2.33398C2.06065 6.94482 1.83398 6.71816 1.83398 6.44482C1.83398 6.17149 2.06065 5.94482 2.33398 5.94482H13.6673C13.9407 5.94482 14.1673 6.17149 14.1673 6.44482C14.1673 6.71816 13.9407 6.94482 13.6673 6.94482Z" fill="#292D32"/>
<path d="M10.6667 15.5516H5.33333C2.9 15.5516 1.5 14.1516 1.5 11.7183V6.0516C1.5 3.61826 2.9 2.21826 5.33333 2.21826H10.6667C13.1 2.21826 14.5 3.61826 14.5 6.0516V11.7183C14.5 14.1516 13.1 15.5516 10.6667 15.5516ZM5.33333 3.21826C3.42667 3.21826 2.5 4.14493 2.5 6.0516V11.7183C2.5 13.6249 3.42667 14.5516 5.33333 14.5516H10.6667C12.5733 14.5516 13.5 13.6249 13.5 11.7183V6.0516C13.5 4.14493 12.5733 3.21826 10.6667 3.21826H5.33333Z" fill="#292D32"/>
</svg>
