<svg width="17" height="17" viewBox="0 0 17 17" fill="none" xmlns="http://www.w3.org/2000/svg">
<path d="M10.5007 15.3519H6.50065C2.88065 15.3519 1.33398 13.8052 1.33398 10.1852V6.18522C1.33398 2.56522 2.88065 1.01855 6.50065 1.01855H10.5007C14.1207 1.01855 15.6673 2.56522 15.6673 6.18522V10.1852C15.6673 13.8052 14.1207 15.3519 10.5007 15.3519ZM6.50065 2.01855C3.42732 2.01855 2.33398 3.11189 2.33398 6.18522V10.1852C2.33398 13.2586 3.42732 14.3519 6.50065 14.3519H10.5007C13.574 14.3519 14.6673 13.2586 14.6673 10.1852V6.18522C14.6673 3.11189 13.574 2.01855 10.5007 2.01855H6.50065Z" fill="#01203F"/>
<path d="M9.67284 12.0182H7.31951C6.58617 12.0182 6.00617 11.6582 5.67951 11.0049L5.08617 9.81156C4.94617 9.5249 4.65951 9.35156 4.33951 9.35156H1.82617C1.55284 9.35156 1.32617 9.1249 1.32617 8.85156C1.32617 8.57823 1.55951 8.35156 1.83284 8.35156H4.33951C5.03951 8.35156 5.66617 8.73823 5.97951 9.3649L6.57284 10.5582C6.72617 10.8649 6.97284 11.0182 7.31951 11.0182H9.67284C9.99284 11.0182 10.2795 10.8449 10.4195 10.5582L11.0128 9.3649C11.3262 8.73823 11.9528 8.35156 12.6528 8.35156H15.1462C15.4195 8.35156 15.6462 8.57823 15.6462 8.85156C15.6462 9.1249 15.4195 9.35156 15.1462 9.35156H12.6528C12.3328 9.35156 12.0462 9.5249 11.9062 9.81156L11.3128 11.0049C10.9995 11.6316 10.3728 12.0182 9.67284 12.0182Z" fill="#01203F"/>
</svg>
