<svg width="17" height="16" viewBox="0 0 17 16" fill="none" xmlns="http://www.w3.org/2000/svg">
<path d="M3.34844 1.03496C2.84219 1.23184 2.41406 1.49434 1.98594 1.92246C1.55781 2.34746 1.29531 2.77871 1.09844 3.28184C0.907813 3.76934 0.779688 4.32871 0.742188 5.14746C0.704687 5.96621 0.695312 6.22871 0.695312 8.31621C0.695312 10.4037 0.704687 10.6662 0.742188 11.485C0.779688 12.3037 0.910938 12.8631 1.09844 13.3506C1.29531 13.8568 1.55781 14.285 1.98594 14.7131C2.41406 15.1412 2.84219 15.4037 3.34844 15.6006C3.83594 15.7912 4.39531 15.9193 5.21406 15.9568C6.03281 15.9943 6.29531 16.0037 8.38281 16.0037C10.4703 16.0037 10.7328 15.9943 11.5516 15.9568C12.3703 15.9193 12.9297 15.7881 13.4172 15.6006C13.9234 15.4037 14.3516 15.1412 14.7797 14.7131C15.2078 14.285 15.4703 13.8568 15.6672 13.3506C15.8578 12.8631 15.9859 12.3037 16.0234 11.485C16.0609 10.6662 16.0703 10.4037 16.0703 8.31621C16.0703 6.22871 16.0609 5.96621 16.0234 5.14746C15.9859 4.32871 15.8547 3.76934 15.6672 3.28184C15.4703 2.77871 15.2078 2.34746 14.7828 1.92246C14.3547 1.49434 13.9266 1.23184 13.4203 1.03496C12.9328 0.844336 12.3734 0.716211 11.5547 0.678711C10.7359 0.641211 10.4734 0.631836 8.38594 0.631836C6.29844 0.631836 6.03594 0.641211 5.21719 0.678711C4.39531 0.713086 3.83594 0.844336 3.34844 1.03496ZM11.4891 2.05996C12.2391 2.09434 12.6453 2.21934 12.9172 2.32559C13.2766 2.46621 13.5328 2.63184 13.8016 2.90059C14.0703 3.16934 14.2359 3.42559 14.3766 3.78496C14.4828 4.05684 14.6078 4.46309 14.6422 5.21309C14.6797 6.02246 14.6859 6.26621 14.6859 8.31934C14.6859 10.3725 14.6766 10.6162 14.6422 11.4256C14.6078 12.1756 14.4828 12.5818 14.3766 12.8537C14.2359 13.2131 14.0703 13.4693 13.8016 13.7381C13.5328 14.0068 13.2766 14.1725 12.9172 14.3131C12.6453 14.4193 12.2391 14.5443 11.4891 14.5787C10.6797 14.6162 10.4359 14.6225 8.38281 14.6225C6.32969 14.6225 6.08594 14.6131 5.27656 14.5787C4.52656 14.5443 4.12031 14.4193 3.84844 14.3131C3.48906 14.1725 3.23281 14.0068 2.96406 13.7381C2.69531 13.4693 2.52969 13.2131 2.38906 12.8537C2.28281 12.5818 2.15781 12.1756 2.12344 11.4256C2.08594 10.6162 2.07969 10.3725 2.07969 8.31934C2.07969 6.26621 2.08906 6.02246 2.12344 5.21309C2.15781 4.46309 2.28281 4.05684 2.38906 3.78496C2.52969 3.42559 2.69531 3.16934 2.96406 2.90059C3.23281 2.63184 3.48906 2.46621 3.84844 2.32559C4.12031 2.21934 4.52656 2.09434 5.27656 2.05996C6.08594 2.02246 6.32969 2.01621 8.38281 2.01621C10.4359 2.01621 10.6797 2.02246 11.4891 2.05996Z" fill="white"/>
</svg>
