<svg width="17" height="16" viewBox="0 0 17 16" fill="none" xmlns="http://www.w3.org/2000/svg">
<path d="M3.34844 0.584766C2.84219 0.781641 2.41406 1.04414 1.98594 1.47227C1.55781 1.89727 1.29531 2.32852 1.09844 2.83164C0.907813 3.31914 0.779688 3.87852 0.742188 4.69727C0.704687 5.51602 0.695312 5.77852 0.695312 7.86602C0.695312 9.95352 0.704687 10.216 0.742188 11.0348C0.779688 11.8535 0.910938 12.4129 1.09844 12.9004C1.29531 13.4066 1.55781 13.8348 1.98594 14.2629C2.41406 14.691 2.84219 14.9535 3.34844 15.1504C3.83594 15.341 4.39531 15.4691 5.21406 15.5066C6.03281 15.5441 6.29531 15.5535 8.38281 15.5535C10.4703 15.5535 10.7328 15.5441 11.5516 15.5066C12.3703 15.4691 12.9297 15.3379 13.4172 15.1504C13.9234 14.9535 14.3516 14.691 14.7797 14.2629C15.2078 13.8348 15.4703 13.4066 15.6672 12.9004C15.8578 12.4129 15.9859 11.8535 16.0234 11.0348C16.0609 10.216 16.0703 9.95352 16.0703 7.86602C16.0703 5.77852 16.0609 5.51602 16.0234 4.69727C15.9859 3.87852 15.8547 3.31914 15.6672 2.83164C15.4703 2.32852 15.2078 1.89727 14.7828 1.47227C14.3547 1.04414 13.9266 0.781641 13.4203 0.584766C12.9328 0.394141 12.3734 0.266016 11.5547 0.228516C10.7359 0.191016 10.4734 0.181641 8.38594 0.181641C6.29844 0.181641 6.03594 0.191016 5.21719 0.228516C4.39531 0.262891 3.83594 0.394141 3.34844 0.584766ZM11.4891 1.60977C12.2391 1.64414 12.6453 1.76914 12.9172 1.87539C13.2766 2.01602 13.5328 2.18164 13.8016 2.45039C14.0703 2.71914 14.2359 2.97539 14.3766 3.33477C14.4828 3.60664 14.6078 4.01289 14.6422 4.76289C14.6797 5.57227 14.6859 5.81602 14.6859 7.86914C14.6859 9.92227 14.6766 10.166 14.6422 10.9754C14.6078 11.7254 14.4828 12.1316 14.3766 12.4035C14.2359 12.7629 14.0703 13.0191 13.8016 13.2879C13.5328 13.5566 13.2766 13.7223 12.9172 13.8629C12.6453 13.9691 12.2391 14.0941 11.4891 14.1285C10.6797 14.166 10.4359 14.1723 8.38281 14.1723C6.32969 14.1723 6.08594 14.1629 5.27656 14.1285C4.52656 14.0941 4.12031 13.9691 3.84844 13.8629C3.48906 13.7223 3.23281 13.5566 2.96406 13.2879C2.69531 13.0191 2.52969 12.7629 2.38906 12.4035C2.28281 12.1316 2.15781 11.7254 2.12344 10.9754C2.08594 10.166 2.07969 9.92227 2.07969 7.86914C2.07969 5.81602 2.08906 5.57227 2.12344 4.76289C2.15781 4.01289 2.28281 3.60664 2.38906 3.33477C2.52969 2.97539 2.69531 2.71914 2.96406 2.45039C3.23281 2.18164 3.48906 2.01602 3.84844 1.87539C4.12031 1.76914 4.52656 1.64414 5.27656 1.60977C6.08594 1.57227 6.32969 1.56602 8.38281 1.56602C10.4359 1.56602 10.6797 1.57227 11.4891 1.60977Z" fill="white"/>
<path d="M4.4375 7.86899C4.4375 10.0502 6.20625 11.8159 8.38438 11.8159C10.5625 11.8159 12.3312 10.0471 12.3312 7.86899C12.3312 5.69087 10.5656 3.92212 8.38438 3.92212C6.20313 3.92212 4.4375 5.68774 4.4375 7.86899ZM10.9469 7.86899C10.9469 9.28462 9.8 10.4315 8.38438 10.4315C6.96875 10.4315 5.82188 9.28462 5.82188 7.86899C5.82188 6.45337 6.96875 5.30649 8.38438 5.30649C9.8 5.30649 10.9469 6.45337 10.9469 7.86899Z" fill="white"/>
<path d="M12.4883 4.68799C12.9974 4.68799 13.4102 4.27525 13.4102 3.76611C13.4102 3.25698 12.9974 2.84424 12.4883 2.84424C11.9791 2.84424 11.5664 3.25698 11.5664 3.76611C11.5664 4.27525 11.9791 4.68799 12.4883 4.68799Z" fill="white"/>
</svg>
