<svg width="18" height="23" viewBox="0 0 18 23" fill="none" xmlns="http://www.w3.org/2000/svg">
<path d="M4 11.2202C4 10.6679 4.44772 10.2202 5 10.2202H13C13.5523 10.2202 14 10.6679 14 11.2202C14 11.7725 13.5523 12.2202 13 12.2202H5C4.44772 12.2202 4 11.7725 4 11.2202Z" fill="#FFF1CE"/>
<path d="M5 15.2202C4.44772 15.2202 4 15.6679 4 16.2202C4 16.7725 4.44772 17.2202 5 17.2202H13C13.5523 17.2202 14 16.7725 14 16.2202C14 15.6679 13.5523 15.2202 13 15.2202H5Z" fill="#FFF1CE"/>
<path fill-rule="evenodd" clip-rule="evenodd" d="M4 0.220215C1.79086 0.220215 0 2.01108 0 4.22021V18.2202C0 20.4294 1.79086 22.2202 4 22.2202H14C16.2091 22.2202 18 20.4294 18 18.2202V8.30636C18 7.37062 17.6719 6.46449 17.0729 5.74563L13.6678 1.65948C12.9078 0.747507 11.782 0.220215 10.5949 0.220215H4ZM2 4.22021C2 3.11565 2.89543 2.22021 4 2.22021H10V5.22021C10 7.42935 11.7909 9.22021 14 9.22021H16V18.2202C16 19.3248 15.1046 20.2202 14 20.2202H4C2.89543 20.2202 2 19.3248 2 18.2202V4.22021ZM15.6794 7.22021C15.6359 7.15295 15.5882 7.08808 15.5364 7.026L12.1313 2.93985C12.0897 2.88987 12.0458 2.84221 12 2.79696V5.22021C12 6.32478 12.8954 7.22021 14 7.22021H15.6794Z" fill="#FFF1CE"/>
</svg>
