<svg width="20" height="21" viewBox="0 0 20 21" fill="none" xmlns="http://www.w3.org/2000/svg">
<path d="M14.4412 8.12288C14.8033 7.76204 14.7944 7.18562 14.4213 6.83541C14.0482 6.4852 13.4522 6.49381 13.0901 6.85465L8.28353 11.6444L6.90993 10.2756C6.54782 9.91472 5.95183 9.90611 5.57873 10.2563C5.20564 10.6065 5.19673 11.183 5.55884 11.5438L7.60799 13.5858C7.78527 13.7624 8.02898 13.8621 8.28353 13.8621C8.53809 13.8621 8.78179 13.7624 8.95908 13.5858L14.4412 8.12288Z" fill="#FFF1CE"/>
<path fill-rule="evenodd" clip-rule="evenodd" d="M12.3552 1.1417C11.042 -0.0869474 8.95797 -0.0869474 7.64479 1.1417C7.31125 1.45377 6.84747 1.59951 6.38797 1.53665C4.57887 1.28917 2.89283 2.47392 2.57715 4.21443C2.49697 4.65651 2.21034 5.03807 1.80039 5.24843C0.186395 6.07665 -0.457616 7.99361 0.344787 9.58117C0.548593 9.9844 0.548593 10.456 0.344787 10.8593C-0.457616 12.4468 0.186395 14.3638 1.80039 15.192C2.21034 15.4024 2.49697 15.7839 2.57715 16.226C2.89283 17.9665 4.57887 19.1513 6.38797 18.9038C6.84747 18.8409 7.31125 18.9867 7.64479 19.2987C8.95797 20.5274 11.042 20.5274 12.3552 19.2987C12.6888 18.9867 13.1525 18.8409 13.612 18.9038C15.4211 19.1513 17.1072 17.9665 17.4229 16.226C17.503 15.7839 17.7897 15.4024 18.1996 15.192C19.8136 14.3638 20.4576 12.4468 19.6552 10.8593C19.4514 10.456 19.4514 9.9844 19.6552 9.58117C20.4576 7.99361 19.8136 6.07665 18.1996 5.24843C17.7897 5.03807 17.503 4.65651 17.4229 4.21443C17.1072 2.47392 15.4211 1.28917 13.612 1.53665C13.1525 1.59951 12.6888 1.45377 12.3552 1.1417ZM8.95389 2.45047C9.53717 1.90475 10.4628 1.90475 11.0461 2.45047C11.797 3.15307 12.8412 3.48119 13.8757 3.33967C14.6793 3.22975 15.4281 3.75597 15.5684 4.52905C15.7489 5.52435 16.3942 6.38339 17.3172 6.857C18.034 7.22487 18.3201 8.07632 17.9637 8.78146C17.5048 9.6893 17.5048 10.7511 17.9637 11.659C18.3201 12.3641 18.034 13.2156 17.3172 13.5834C16.3942 14.057 15.7489 14.9161 15.5684 15.9114C15.4281 16.6845 14.6793 17.2107 13.8757 17.1008C12.8412 16.9592 11.797 17.2874 11.0461 17.99C10.4628 18.5357 9.53717 18.5357 8.95389 17.99C8.20296 17.2874 7.1588 16.9592 6.12428 17.1008C5.32074 17.2107 4.57186 16.6845 4.43164 15.9114C4.25112 14.9161 3.6058 14.057 2.68284 13.5834C1.96596 13.2156 1.67991 12.3641 2.03631 11.659C2.49516 10.7511 2.49516 9.6893 2.03631 8.78146C1.67991 8.07632 1.96596 7.22487 2.68284 6.857C3.6058 6.38339 4.25112 5.52435 4.43164 4.52905C4.57186 3.75597 5.32074 3.22975 6.12428 3.33967C7.1588 3.48119 8.20296 3.15307 8.95389 2.45047Z" fill="#FFF1CE"/>
</svg>
