<svg width="22" height="20" viewBox="0 0 22 20" fill="none" xmlns="http://www.w3.org/2000/svg">
<path fill-rule="evenodd" clip-rule="evenodd" d="M0 4.72021C0 2.51108 1.79086 0.720215 4 0.720215H18C20.2091 0.720215 22 2.51108 22 4.72021V12.4702C22 13.0225 21.5523 13.4702 21 13.4702C20.4477 13.4702 20 13.0225 20 12.4702V7.22021H2V15.7202C2 16.8248 2.89543 17.7202 4 17.7202H13.5C14.0523 17.7202 14.5 18.1679 14.5 18.7202C14.5 19.2725 14.0523 19.7202 13.5 19.7202H4C1.79086 19.7202 0 17.9294 0 15.7202V4.72021ZM2 5.22021H20V4.72021C20 3.61565 19.1046 2.72021 18 2.72021H4C2.89543 2.72021 2 3.61565 2 4.72021V5.22021Z" fill="#FFF1CE"/>
<path d="M3 14.2202C3 13.6679 3.44772 13.2202 4 13.2202H12C12.5523 13.2202 13 13.6679 13 14.2202C13 14.7725 12.5523 15.2202 12 15.2202H4C3.44772 15.2202 3 14.7725 3 14.2202Z" fill="#FFF1CE"/>
<path d="M21.6961 16.7164C22.0866 16.3258 22.0866 15.6927 21.6961 15.3022C21.3056 14.9116 20.6724 14.9116 20.2819 15.3022L18.3431 17.2409L18.0613 16.959C17.6707 16.5685 17.0376 16.5685 16.647 16.959C16.2565 17.3495 16.2565 17.9827 16.647 18.3732L17.636 19.3622C18.0266 19.7527 18.6597 19.7527 19.0503 19.3622L21.6961 16.7164Z" fill="#FFF1CE"/>
</svg>
