<svg width="17" height="17" viewBox="0 0 17 17" fill="none" xmlns="http://www.w3.org/2000/svg">
<path d="M15.1636 0.489746H1.52584C1.21259 0.489746 0.912168 0.614184 0.690666 0.835686C0.469165 1.05719 0.344727 1.35761 0.344727 1.67086V15.3086C0.344727 15.6219 0.469165 15.9223 0.690666 16.1438C0.912168 16.3653 1.21259 16.4897 1.52584 16.4897H15.1636C15.4769 16.4897 15.7773 16.3653 15.9988 16.1438C16.2203 15.9223 16.3447 15.6219 16.3447 15.3086V1.67086C16.3447 1.35761 16.2203 1.05719 15.9988 0.835686C15.7773 0.614184 15.4769 0.489746 15.1636 0.489746ZM5.11362 14.1197H2.70806V6.47864H5.11362V14.1197ZM3.90917 5.41975C3.6363 5.41821 3.37 5.33588 3.14388 5.18314C2.91776 5.0304 2.74195 4.8141 2.63864 4.56154C2.53534 4.30898 2.50916 4.03147 2.56341 3.76405C2.61767 3.49662 2.74993 3.25126 2.9435 3.05893C3.13707 2.8666 3.38327 2.73592 3.65104 2.68339C3.91881 2.63085 4.19614 2.65881 4.44803 2.76374C4.69992 2.86866 4.91509 3.04586 5.06637 3.27295C5.21765 3.50005 5.29828 3.76687 5.29806 4.03975C5.30063 4.22244 5.2664 4.40377 5.1974 4.57295C5.1284 4.74213 5.02605 4.89568 4.89644 5.02446C4.76683 5.15324 4.61263 5.2546 4.44301 5.32251C4.27339 5.39043 4.09184 5.42349 3.90917 5.41975ZM13.9803 14.1264H11.5758V9.95197C11.5758 8.72086 11.0525 8.34086 10.377 8.34086C9.66362 8.34086 8.96362 8.87864 8.96362 9.98308V14.1264H6.55806V6.48419H8.87139V7.54308H8.90251C9.13473 7.07308 9.94806 6.26975 11.1892 6.26975C12.5314 6.26975 13.9814 7.06641 13.9814 9.39975L13.9803 14.1264Z" fill="white"/>
</svg>
