<svg width="16" height="17" viewBox="0 0 16 17" fill="none" xmlns="http://www.w3.org/2000/svg">
<path d="M7.99992 10.2319C6.57992 10.2319 5.41992 9.07861 5.41992 7.65195C5.41992 6.22528 6.57992 5.07861 7.99992 5.07861C9.41992 5.07861 10.5799 6.23195 10.5799 7.65861C10.5799 9.08528 9.41992 10.2319 7.99992 10.2319ZM7.99992 6.07861C7.13326 6.07861 6.41992 6.78528 6.41992 7.65861C6.41992 8.53195 7.12659 9.23861 7.99992 9.23861C8.87326 9.23861 9.57992 8.53195 9.57992 7.65861C9.57992 6.78528 8.86659 6.07861 7.99992 6.07861Z" fill="#01203F"/>
<path d="M7.99914 15.9587C7.01247 15.9587 6.01914 15.5853 5.24581 14.8453C3.27914 12.952 1.10581 9.93199 1.92581 6.33865C2.66581 3.07865 5.51247 1.61865 7.99914 1.61865C7.99914 1.61865 7.99914 1.61865 8.00581 1.61865C10.4925 1.61865 13.3391 3.07865 14.0791 6.34532C14.8925 9.93865 12.7191 12.952 10.7525 14.8453C9.97914 15.5853 8.98581 15.9587 7.99914 15.9587ZM7.99914 2.61865C6.05914 2.61865 3.56581 3.65199 2.90581 6.55865C2.18581 9.69865 4.15914 12.4053 5.94581 14.1187C7.09914 15.232 8.90581 15.232 10.0591 14.1187C11.8391 12.4053 13.8125 9.69865 13.1058 6.55865C12.4391 3.65199 9.93914 2.61865 7.99914 2.61865Z" fill="#01203F"/>
</svg>
