<svg width="14" height="19" viewBox="0 0 14 19" fill="none" xmlns="http://www.w3.org/2000/svg">
<path fill-rule="evenodd" clip-rule="evenodd" d="M7.00065 0.666748C4.69947 0.666748 2.83398 2.53223 2.83398 4.83341C2.83398 7.1346 4.69947 9.00008 7.00065 9.00008C9.30184 9.00008 11.1673 7.1346 11.1673 4.83341C11.1673 2.53223 9.30184 0.666748 7.00065 0.666748ZM4.50065 4.83341C4.50065 3.4527 5.61994 2.33341 7.00065 2.33341C8.38136 2.33341 9.50065 3.4527 9.50065 4.83341C9.50065 6.21413 8.38136 7.33341 7.00065 7.33341C5.61994 7.33341 4.50065 6.21413 4.50065 4.83341Z" fill="#667185"/>
<path fill-rule="evenodd" clip-rule="evenodd" d="M7.00065 18.1667C5.7169 18.1667 3.85883 17.8753 2.46351 17.2646C1.77851 16.9648 1.08186 16.5357 0.677112 15.9146C0.464248 15.5879 0.329679 15.2032 0.33409 14.7736C0.33846 14.3479 0.478517 13.9402 0.713913 13.5607C1.85508 11.7214 4.18964 9.83341 7.00065 9.83341C9.81165 9.83341 12.1462 11.7214 13.2874 13.5607C13.5228 13.9402 13.6628 14.3479 13.6672 14.7736C13.6716 15.2032 13.5371 15.5879 13.3242 15.9146C12.9194 16.5357 12.2228 16.9648 11.5378 17.2646C10.1425 17.8753 8.2844 18.1667 7.00065 18.1667ZM2.13014 14.4394C2.02042 14.6163 2.00129 14.7298 2.00067 14.7907C2.00008 14.8476 2.0147 14.9145 2.07345 15.0046C2.21193 15.2171 2.54821 15.4823 3.13176 15.7377C4.27352 16.2374 5.89501 16.5001 7.00065 16.5001C8.10628 16.5001 9.72778 16.2374 10.8695 15.7377C11.4531 15.4823 11.7894 15.2171 11.9278 15.0046C11.9866 14.9145 12.0012 14.8476 12.0006 14.7907C12 14.7298 11.9809 14.6163 11.8712 14.4394C10.936 12.9322 9.07093 11.5001 7.00065 11.5001C4.93037 11.5001 3.06527 12.9322 2.13014 14.4394Z" fill="#667185"/>
</svg>
