<svg width="15" height="15" viewBox="0 0 15 15" fill="none" xmlns="http://www.w3.org/2000/svg">
<path d="M11.134 14.7518C10.3807 14.7518 9.58732 14.5718 8.76732 14.2251C7.96732 13.8851 7.16065 13.4185 6.37398 12.8518C5.59398 12.2785 4.84065 11.6385 4.12732 10.9385C3.42065 10.2251 2.78065 9.47179 2.21398 8.69846C1.64065 7.89846 1.18065 7.09846 0.853984 6.32512C0.507318 5.49846 0.333984 4.69846 0.333984 3.94512C0.333984 3.42512 0.427318 2.93179 0.607318 2.47179C0.793984 1.99846 1.09398 1.55846 1.50065 1.17846C2.01398 0.67179 2.60065 0.418457 3.22732 0.418457C3.48732 0.418457 3.75398 0.478457 3.98065 0.585124C4.24065 0.705124 4.46065 0.885124 4.62065 1.12512L6.16732 3.30512C6.30732 3.49846 6.41398 3.68512 6.48732 3.87179C6.57398 4.07179 6.62065 4.27179 6.62065 4.46512C6.62065 4.71846 6.54732 4.96512 6.40732 5.19846C6.30732 5.37846 6.15398 5.57179 5.96065 5.76512L5.50732 6.23846C5.51398 6.25846 5.52065 6.27179 5.52732 6.28512C5.60732 6.42512 5.76732 6.66512 6.07398 7.02512C6.40065 7.39846 6.70732 7.73846 7.01398 8.05179C7.40732 8.43846 7.73398 8.74512 8.04065 8.99846C8.42065 9.31846 8.66732 9.47846 8.81398 9.55179L8.80065 9.58512L9.28732 9.10512C9.49398 8.89846 9.69398 8.74512 9.88732 8.64512C10.254 8.41846 10.7207 8.37846 11.1873 8.57179C11.3607 8.64512 11.5473 8.74512 11.7473 8.88512L13.9607 10.4585C14.2073 10.6251 14.3873 10.8385 14.494 11.0918C14.594 11.3451 14.6407 11.5785 14.6407 11.8118C14.6407 12.1318 14.5673 12.4518 14.4273 12.7518C14.2873 13.0518 14.114 13.3118 13.894 13.5518C13.514 13.9718 13.1007 14.2718 12.6207 14.4651C12.1607 14.6518 11.6607 14.7518 11.134 14.7518ZM3.22732 1.41846C2.86065 1.41846 2.52065 1.57846 2.19398 1.89846C1.88732 2.18512 1.67398 2.49846 1.54065 2.83846C1.40065 3.18512 1.33398 3.55179 1.33398 3.94512C1.33398 4.56512 1.48065 5.23846 1.77398 5.93179C2.07398 6.63846 2.49398 7.37179 3.02732 8.10512C3.56065 8.83846 4.16732 9.55179 4.83398 10.2251C5.50065 10.8851 6.22065 11.4985 6.96065 12.0385C7.68065 12.5651 8.42065 12.9918 9.15398 13.2985C10.294 13.7851 11.3607 13.8985 12.2407 13.5318C12.5807 13.3918 12.8807 13.1785 13.154 12.8718C13.3073 12.7051 13.4273 12.5251 13.5273 12.3118C13.6073 12.1451 13.6473 11.9718 13.6473 11.7985C13.6473 11.6918 13.6273 11.5851 13.574 11.4651C13.554 11.4251 13.514 11.3518 13.3873 11.2651L11.174 9.69179C11.0407 9.59846 10.9207 9.53179 10.8073 9.48512C10.6607 9.42512 10.6007 9.36512 10.374 9.50512C10.2407 9.57179 10.1207 9.67179 9.98732 9.80512L9.48065 10.3051C9.22065 10.5585 8.82065 10.6185 8.51398 10.5051L8.33398 10.4251C8.06065 10.2785 7.74065 10.0518 7.38732 9.75179C7.06732 9.47846 6.72065 9.15846 6.30065 8.74512C5.97398 8.41179 5.64732 8.05846 5.30732 7.66512C4.99398 7.29846 4.76732 6.98512 4.62732 6.72512L4.54732 6.52512C4.50732 6.37179 4.49398 6.28512 4.49398 6.19179C4.49398 5.95179 4.58065 5.73846 4.74732 5.57179L5.24732 5.05179C5.38065 4.91846 5.48065 4.79179 5.54732 4.67846C5.60065 4.59179 5.62065 4.51846 5.62065 4.45179C5.62065 4.39846 5.60065 4.31846 5.56732 4.23846C5.52065 4.13179 5.44732 4.01179 5.35398 3.88512L3.80732 1.69846C3.74065 1.60512 3.66065 1.53846 3.56065 1.49179C3.45398 1.44512 3.34065 1.41846 3.22732 1.41846ZM8.80065 9.59179L8.69398 10.0451L8.87398 9.57846C8.84065 9.57179 8.81398 9.57846 8.80065 9.59179Z" fill="#01203F"/>
</svg>
