<svg width="966" height="95" viewBox="0 0 966 95" fill="none" xmlns="http://www.w3.org/2000/svg">
<path d="M52.4823 28.012C52.1256 24.4151 50.5947 21.6208 47.8896 19.6291C45.1845 17.6374 41.5132 16.6416 36.8759 16.6416C33.7248 16.6416 31.0643 17.0875 28.8943 17.9793C26.7242 18.8413 25.0595 20.0453 23.9002 21.591C22.7706 23.1368 22.2058 24.8907 22.2058 26.8526C22.1463 28.4876 22.4882 29.9145 23.2313 31.1333C24.0042 32.3521 25.0595 33.4074 26.3972 34.2992C27.7349 35.1612 29.2807 35.9193 31.0346 36.5732C32.7885 37.1975 34.6612 37.7326 36.6529 38.1785L44.8575 40.1404C48.8408 41.0322 52.4972 42.2213 55.8266 43.7076C59.156 45.194 62.0394 47.0222 64.477 49.1922C66.9146 51.3622 68.8023 53.9187 70.14 56.8617C71.5074 59.8046 72.2059 63.1786 72.2357 66.9836C72.2059 72.5722 70.7791 77.4176 67.955 81.5199C65.1607 85.5924 61.1179 88.7583 55.8266 91.0175C50.565 93.247 44.2183 94.3618 36.7867 94.3618C29.4145 94.3618 22.9935 93.2322 17.5238 90.973C12.0839 88.7137 7.83296 85.3695 4.77112 80.9402C1.73901 76.4812 0.148633 70.9669 0 64.3974H18.6832C18.8913 67.4592 19.7682 70.0157 21.314 72.0668C22.8895 74.0882 24.9852 75.6192 27.6012 76.6596C30.2468 77.6703 33.2344 78.1757 36.5637 78.1757C39.8337 78.1757 42.6726 77.7 45.0804 76.7488C47.518 75.7975 49.4056 74.4747 50.7433 72.7803C52.081 71.0858 52.7499 69.1388 52.7499 66.939C52.7499 64.8879 52.1405 63.1637 50.9217 61.7666C49.7326 60.3694 47.9788 59.1803 45.6601 58.1994C43.3711 57.2184 40.562 56.3266 37.2326 55.524L27.289 53.0269C19.5898 51.1542 13.5107 48.2261 9.05175 44.2427C4.59276 40.2593 2.37813 34.8937 2.40786 28.1458C2.37813 22.6166 3.8496 17.786 6.82226 13.654C9.82465 9.52203 13.9418 6.29669 19.1737 3.97802C24.4056 1.65934 30.3509 0.5 37.0096 0.5C43.7873 0.5 49.7029 1.65934 54.7564 3.97802C59.8397 6.29669 63.7933 9.52203 66.6173 13.654C69.4414 17.786 70.898 22.572 70.9872 28.012H52.4823Z" fill="#F2E6C7"/>
<path d="M138.245 1.74852H157.553V61.0531C157.553 67.7119 155.962 73.5383 152.781 78.5324C149.63 83.5264 145.216 87.4206 139.538 90.2149C133.86 92.9795 127.246 94.3618 119.696 94.3618C112.115 94.3618 105.486 92.9795 99.8086 90.2149C94.1308 87.4206 89.7164 83.5264 86.5654 78.5324C83.4143 73.5383 81.8388 67.7119 81.8388 61.0531V1.74852H101.146V59.4033C101.146 62.8813 101.904 65.9729 103.42 68.678C104.966 71.3831 107.136 73.5086 109.93 75.0544C112.725 76.6001 115.98 77.373 119.696 77.373C123.441 77.373 126.696 76.6001 129.461 75.0544C132.255 73.5086 134.41 71.3831 135.926 68.678C137.472 65.9729 138.245 62.8813 138.245 59.4033V1.74852Z" fill="#F2E6C7"/>
<path d="M170.054 93.0687V1.74852H206.083C213.009 1.74852 218.91 3.07135 223.785 5.71702C228.66 8.33297 232.376 11.9745 234.932 16.6416C237.519 21.2789 238.812 26.6297 238.812 32.6939C238.812 38.7582 237.504 44.1089 234.888 48.7463C232.272 53.3837 228.482 56.9954 223.517 59.5816C218.583 62.1679 212.608 63.461 205.592 63.461H182.628V47.9883H202.471C206.187 47.9883 209.249 47.3491 211.656 46.0709C214.094 44.7629 215.907 42.9645 217.096 40.6755C218.315 38.3568 218.925 35.6963 218.925 32.6939C218.925 29.6618 218.315 27.0161 217.096 24.7569C215.907 22.468 214.094 20.6992 211.656 19.4507C209.219 18.1725 206.127 17.5334 202.382 17.5334H189.361V93.0687H170.054Z" fill="#F2E6C7"/>
<path d="M247.969 93.0687V1.74852H283.998C290.894 1.74852 296.78 2.98217 301.655 5.44948C306.56 7.88706 310.291 11.3502 312.847 15.8389C315.434 20.2979 316.727 25.5447 316.727 31.5792C316.727 37.6434 315.419 42.8604 312.803 47.2302C310.187 51.5703 306.397 54.8997 301.432 57.2184C296.498 59.5371 290.523 60.6964 283.507 60.6964H259.384V45.1791H280.386C284.072 45.1791 287.134 44.6738 289.571 43.663C292.009 42.6523 293.822 41.1363 295.011 39.1149C296.23 37.0935 296.84 34.5816 296.84 31.5792C296.84 28.5471 296.23 25.9906 295.011 23.9097C293.822 21.8288 291.994 20.2533 289.527 19.1832C287.089 18.0833 284.012 17.5334 280.297 17.5334H267.276V93.0687H247.969ZM297.285 51.5109L319.982 93.0687H298.668L276.462 51.5109H297.285Z" fill="#F2E6C7"/>
<path d="M342.728 93.0687H322.038L353.563 1.74852H378.444L409.925 93.0687H389.235L366.36 22.6166H365.647L342.728 93.0687ZM341.435 57.1738H390.305V72.2452H341.435V57.1738Z" fill="#F2E6C7"/>
<path d="M417.533 1.74852H441.344L466.492 63.1043H467.562L492.711 1.74852H516.522V93.0687H497.794V33.6303H497.036L473.404 92.6228H460.651L437.018 33.4074H436.26V93.0687H417.533V1.74852Z" fill="#F2E6C7"/>
<path d="M612.964 47.4086C612.964 57.367 611.077 65.8391 607.301 72.8249C603.556 79.8106 598.443 85.1465 591.962 88.8326C585.512 92.489 578.258 94.3172 570.202 94.3172C562.087 94.3172 554.804 92.4741 548.353 88.788C541.903 85.1019 536.805 79.766 533.059 72.7803C529.314 65.7945 527.441 57.3373 527.441 47.4086C527.441 37.4502 529.314 28.9781 533.059 21.9923C536.805 15.0066 541.903 9.68553 548.353 6.02915C554.804 2.34305 562.087 0.5 570.202 0.5C578.258 0.5 585.512 2.34305 591.962 6.02915C598.443 9.68553 603.556 15.0066 607.301 21.9923C611.077 28.9781 612.964 37.4502 612.964 47.4086ZM593.389 47.4086C593.389 40.9579 592.423 35.518 590.491 31.0887C588.588 26.6594 585.898 23.3003 582.42 21.0114C578.942 18.7224 574.87 17.5779 570.202 17.5779C565.535 17.5779 561.463 18.7224 557.985 21.0114C554.507 23.3003 551.802 26.6594 549.869 31.0887C547.967 35.518 547.016 40.9579 547.016 47.4086C547.016 53.8593 547.967 59.2992 549.869 63.7285C551.802 68.1578 554.507 71.5169 557.985 73.8058C561.463 76.0948 565.535 77.2393 570.202 77.2393C574.87 77.2393 578.942 76.0948 582.42 73.8058C585.898 71.5169 588.588 68.1578 590.491 63.7285C592.423 59.2992 593.389 53.8593 593.389 47.4086Z" fill="#F2E6C7"/>
<path d="M700.265 1.74852V93.0687H683.589L643.859 35.5923H643.19V93.0687H623.883V1.74852H640.827L680.244 59.1803H681.047V1.74852H700.265Z" fill="#F2E6C7"/>
<path d="M709.356 17.6671V1.74852H784.356V17.6671H756.398V93.0687H737.314V17.6671H709.356Z" fill="#F2E6C7"/>
<path d="M793.324 93.0687V1.74852H854.858V17.6671H812.631V39.427H851.692V55.3456H812.631V77.1501H855.036V93.0687H793.324Z" fill="#F2E6C7"/>
<path d="M866.824 1.74852H890.635L915.784 63.1043H916.854L942.003 1.74852H965.814V93.0687H947.086V33.6303H946.328L922.695 92.6228H909.943L886.31 33.4074H885.552V93.0687H866.824V1.74852Z" fill="#F2E6C7"/>
</svg>
