<svg width="14" height="14" viewBox="0 0 14 14" fill="none" xmlns="http://www.w3.org/2000/svg">
<path d="M1.16699 13.2706C1.05032 13.2706 0.939474 13.224 0.857808 13.1423C0.746974 13.0315 0.700336 12.8681 0.74117 12.7165L1.47618 9.96898C0.986175 9.05898 0.729491 8.03231 0.729491 6.99398C0.729491 3.53481 3.54116 0.723145 7.00033 0.723145C10.4595 0.723145 13.2712 3.53481 13.2712 6.99398C13.2712 10.4531 10.4595 13.2648 7.00033 13.2648C5.94449 13.2648 4.91201 13.0023 3.99034 12.5006L1.28367 13.2532C1.24283 13.2648 1.20782 13.2706 1.16699 13.2706ZM4.04866 11.5965C4.12449 11.5965 4.20033 11.6198 4.27033 11.6548C5.09283 12.139 6.03783 12.3956 7.00033 12.3956C9.97533 12.3956 12.3962 9.97482 12.3962 6.99982C12.3962 4.02482 9.97533 1.60398 7.00033 1.60398C4.02533 1.60398 1.60449 4.02482 1.60449 6.99982C1.60449 7.95065 1.85532 8.87815 2.32782 9.69481C2.38615 9.79398 2.40366 9.91648 2.3745 10.0273L1.79116 12.209L3.93783 11.614C3.97283 11.6023 4.01366 11.5965 4.04866 11.5965Z" fill="#FFF1CE"/>
<path d="M8.59896 10.3598C8.23729 10.3598 7.86396 10.2782 7.47313 10.109C7.10563 9.9515 6.73813 9.74151 6.3823 9.47901C6.0323 9.22234 5.68814 8.93067 5.37314 8.61567C5.05814 8.29483 4.76645 7.95651 4.50979 7.60651C4.24729 7.23901 4.03728 6.87734 3.88561 6.5215C3.72228 6.1365 3.64062 5.75734 3.64062 5.39567C3.64062 5.13901 3.68728 4.89401 3.77478 4.66651C3.86811 4.42734 4.01979 4.2115 4.21812 4.02484C4.59145 3.65734 5.12814 3.52318 5.55398 3.72735C5.69981 3.79152 5.82231 3.89652 5.91564 4.03652L6.59229 4.98733C6.66229 5.08067 6.71481 5.17983 6.75564 5.279C6.80231 5.39567 6.83148 5.51235 6.83148 5.62318C6.83148 5.77485 6.79063 5.92652 6.70896 6.06068C6.65646 6.14818 6.58062 6.25318 6.48146 6.35235L6.40562 6.43401C6.44062 6.48067 6.48145 6.539 6.54561 6.609C6.66811 6.749 6.80228 6.90067 6.94811 7.0465C7.09395 7.1865 7.23978 7.3265 7.38561 7.449C7.45561 7.50733 7.51398 7.55401 7.56064 7.58317L7.64228 7.5015C7.74728 7.3965 7.85231 7.31485 7.95731 7.26235C8.14981 7.13985 8.44729 7.11068 8.70979 7.22151C8.80313 7.25651 8.89645 7.309 8.99562 7.379L9.96981 8.06733C10.104 8.16067 10.209 8.289 10.279 8.43484C10.3373 8.58067 10.3606 8.70901 10.3606 8.84318C10.3606 9.01818 10.3198 9.18734 10.244 9.35067C10.1681 9.50234 10.0806 9.63651 9.97562 9.75901C9.78895 9.96318 9.57314 10.1148 9.3398 10.214C9.10647 10.3132 8.85562 10.3598 8.59896 10.3598ZM5.12812 4.51484C5.09312 4.51484 4.97648 4.51484 4.83065 4.66067C4.71981 4.76567 4.64396 4.87651 4.59146 4.99901C4.53896 5.12151 4.51562 5.26151 4.51562 5.40151C4.51562 5.64651 4.57395 5.909 4.69062 6.189C4.81312 6.48067 4.99397 6.78985 5.21563 7.09902C5.44313 7.40818 5.6998 7.71734 5.98564 8.00318C6.27147 8.28318 6.5748 8.54567 6.8898 8.779C7.19313 9.00067 7.50231 9.17567 7.81147 9.30984C8.25481 9.50234 8.66312 9.54901 8.99562 9.40901C9.11229 9.36234 9.21729 9.28068 9.32229 9.17568C9.37479 9.11735 9.41564 9.059 9.45064 8.98317C9.46814 8.94234 9.4798 8.89567 9.4798 8.85484C9.4798 8.84317 9.47978 8.82568 9.46228 8.79068L8.48812 8.11401C8.44729 8.08484 8.40645 8.0615 8.37145 8.04983C8.34812 8.0615 8.31314 8.079 8.24897 8.14317L8.0273 8.36484C7.85814 8.53401 7.58981 8.58067 7.37397 8.50483L7.26898 8.45817C7.13481 8.38817 6.98313 8.28318 6.81396 8.13735C6.65063 7.99735 6.49315 7.8515 6.32398 7.68817C6.16065 7.519 6.0148 7.36151 5.8748 7.19817C5.72313 7.01734 5.61814 6.87151 5.54814 6.74901L5.48398 6.59734C5.46648 6.53901 5.46062 6.47484 5.46062 6.41651C5.46062 6.25317 5.51898 6.10733 5.62981 5.99067L5.85148 5.76318C5.91565 5.69901 5.93897 5.66402 5.95064 5.64068C5.93314 5.59985 5.90981 5.56484 5.88064 5.52401L5.19811 4.56151L5.12812 4.51484Z" fill="#FFF1CE"/>
</svg>
